<svg version="1.1" id="Layer_1" xmlns="http://www.w3.org/2000/svg" xmlns:xlink="http://www.w3.org/1999/xlink" x="0px" y="0px"
	 width="100%" viewBox="0 0 500 500" enable-background="new 0 0 500 500" xml:space="preserve">
<path fill="#545454" opacity="1.000000" stroke="none" 
	d="
M501.000000,252.000000 
	C501.000000,334.963867 501.000000,417.927704 501.000000,500.945801 
	C334.442078,500.945801 167.884125,500.945801 1.000000,500.945801 
	C1.000000,418.644928 1.000000,336.289459 1.468575,253.476669 
	C12.998209,253.071091 24.059267,253.122818 34.822876,253.376984 
	C17.824001,259.183380 10.181991,268.950958 11.176741,283.516052 
	C11.876622,293.763672 17.292124,301.382751 25.218842,307.254547 
	C34.051353,313.797302 43.257690,319.833771 52.143589,326.307098 
	C54.933346,328.339447 57.663345,330.754150 59.634136,333.548584 
	C63.893787,339.588470 64.580704,346.261658 60.817577,352.842743 
	C57.656982,358.370117 50.100140,360.971832 42.736771,359.575073 
	C34.683048,358.047363 29.194820,353.052094 25.918774,345.965851 
	C23.644680,341.046875 22.651478,335.544647 20.918055,330.359131 
	C20.577759,329.341156 19.467831,328.580475 18.712860,327.701111 
	C18.172358,328.397797 17.181641,329.080322 17.159170,329.793335 
	C16.844336,339.783569 16.629370,349.777557 16.513937,359.772064 
	C16.505592,360.494568 17.456032,361.228119 17.960688,361.956543 
	C18.680937,361.437408 19.898638,361.029816 20.043951,360.381775 
	C21.393297,354.364166 24.783472,355.520081 28.533571,357.830597 
	C38.124901,363.740021 48.510979,364.717926 59.377617,362.912140 
	C77.674789,359.871552 87.747879,346.054047 83.907585,329.063995 
	C82.299515,321.949677 78.277054,316.199310 72.560722,311.880280 
	C64.990089,306.160187 56.925980,301.088623 49.414017,295.297241 
	C45.245213,292.083282 40.995480,288.484711 38.128628,284.165771 
	C30.330181,272.417328 35.944969,258.783722 49.078304,256.271912 
	C59.863842,254.209137 70.046562,258.494629 74.545349,268.479279 
	C77.639603,275.346710 78.848328,283.057281 81.003181,290.360504 
	C81.367531,291.595337 82.255951,292.675507 82.902229,293.827148 
	C83.564301,292.728119 84.787666,291.636627 84.802536,290.528900 
	C84.970299,278.036835 84.952583,265.542236 85.451202,252.990784 
	C116.097046,252.895798 146.276321,252.842636 176.455597,252.852341 
	C178.737076,252.853073 181.018417,253.300781 182.920761,253.754669 
	C177.438919,253.968613 172.336151,253.968613 167.233368,253.968613 
	C167.162048,254.705872 167.090744,255.443115 167.019424,256.180359 
	C168.418945,256.660217 169.789841,257.261047 171.222733,257.599792 
	C179.121994,259.467438 181.692062,262.319977 180.061844,270.275879 
	C178.504974,277.873749 175.612122,285.216125 172.987274,292.556671 
	C172.605667,293.623871 170.458313,294.654663 169.106400,294.683380 
	C160.283890,294.870880 151.452225,294.895660 142.632141,294.656464 
	C141.205994,294.617828 139.041855,293.307770 138.545853,292.058563 
	C135.230591,283.708771 132.080338,275.280243 129.270966,266.747406 
	C127.372696,260.981842 128.880676,258.944916 134.739487,257.551361 
	C136.241562,257.194092 137.632080,256.367828 139.073853,255.757050 
	C138.886383,255.373642 138.698929,254.990250 138.511459,254.606842 
	C123.384575,254.606842 108.257690,254.606842 92.972641,254.606842 
	C93.165817,255.638290 93.108276,256.427185 93.366348,256.549347 
	C100.668320,260.005768 102.455048,267.171509 105.027161,273.795135 
	C115.811943,301.567810 126.559105,329.355103 137.406250,357.103363 
	C138.076889,358.818909 139.157181,361.081177 140.612991,361.656372 
	C145.938202,363.760529 149.984406,361.625610 152.093338,356.214874 
	C162.731583,328.921173 173.332489,301.612793 184.019333,274.338135 
	C186.696243,267.506256 189.363556,260.591431 196.672089,257.075043 
	C197.177567,256.831848 197.276459,255.743607 197.742828,254.617630 
	C194.096878,254.226639 190.899185,253.883713 188.145065,253.320831 
	C203.773911,253.114395 218.959183,253.127899 233.892120,253.398132 
	C228.062347,256.256348 222.536179,258.976166 216.891205,261.421722 
	C212.403488,263.365906 210.621658,262.320953 209.029877,257.763062 
	C208.572006,256.451965 207.384445,255.395706 206.531464,254.222595 
	C206.085556,255.697922 205.276520,257.167694 205.253860,258.649475 
	C205.126495,266.977570 205.213974,275.308685 205.177109,283.638519 
	C205.151825,289.352234 206.169357,295.567413 198.764160,298.027222 
	C198.666794,298.059570 198.752029,298.641663 198.752029,299.429077 
	C214.058456,299.429077 229.358780,299.429077 244.659119,299.429077 
	C244.740616,298.931122 244.822128,298.433136 244.903625,297.935181 
	C243.520294,297.570251 242.155655,297.093384 240.750580,296.858704 
	C232.068878,295.408630 230.119400,293.285370 229.826096,284.351929 
	C229.656693,279.192261 229.712753,274.024170 229.719864,268.859924 
	C229.733337,259.058502 233.693863,255.139389 243.655121,255.009201 
	C255.222626,254.858032 263.585541,261.021240 268.142242,273.440735 
	C273.299957,287.498474 273.748627,302.142029 272.624054,316.836670 
	C271.845612,327.008942 269.895508,336.999725 264.449768,345.911743 
	C254.803711,361.697571 235.512344,364.380585 221.540176,352.166382 
	C214.300613,345.837646 212.452164,337.375458 210.874542,328.599670 
	C210.646164,327.329193 209.243164,326.269897 208.383713,325.112854 
	C207.891479,326.375153 207.011826,327.624359 206.968689,328.901825 
	C206.642731,338.556702 206.422318,348.216614 206.341324,357.876404 
	C206.331070,359.100708 207.319916,360.333374 207.845856,361.562164 
	C208.632660,360.522430 209.799896,359.594299 210.143219,358.424408 
	C212.070358,351.857330 213.093170,351.232056 218.461044,355.316895 
	C237.780258,370.018524 268.110046,364.153748 283.047913,349.702911 
	C298.327789,334.921112 301.913239,316.460419 299.618286,296.431671 
	C297.382019,276.915131 287.901459,262.348328 268.767853,255.226456 
	C267.934845,254.916428 267.281647,254.123306 266.984619,253.299530 
	C279.564178,252.905426 291.703705,252.750443 303.843781,252.668579 
	C304.591736,252.663528 305.343567,253.234909 306.043884,253.938080 
	C306.401947,255.333969 306.543060,256.899567 307.259888,257.235077 
	C312.656036,259.760620 314.528839,264.747772 316.466217,269.744751 
	C327.713043,298.752747 339.026337,327.735291 350.141937,356.793457 
	C351.589386,360.577362 353.399628,362.142395 357.659149,362.091064 
	C361.662659,362.042786 363.457214,360.781891 364.872437,357.085571 
	C375.461548,329.429321 386.246826,301.847931 397.041443,274.270782 
	C399.716980,267.435516 402.430237,260.554901 409.714905,257.029449 
	C410.203888,256.792786 410.272552,255.687592 410.714325,254.514740 
	C400.273621,254.514740 390.341339,254.514740 380.409058,254.514740 
	C380.280151,254.951385 380.151245,255.388031 380.022339,255.824661 
	C381.436981,256.426788 382.800598,257.241150 384.274780,257.595581 
	C392.130707,259.484436 394.697388,262.334839 393.057251,270.317810 
	C391.496979,277.912018 388.602203,285.250397 385.973511,292.586334 
	C385.593384,293.647156 383.433258,294.657074 382.075775,294.685547 
	C373.256775,294.870483 364.427185,294.922852 355.613647,294.634064 
	C354.122467,294.585236 351.925842,292.983582 351.360565,291.575378 
	C348.139435,283.550934 345.151764,275.421936 342.406891,267.220703 
	C340.318573,260.981049 341.685211,258.883270 348.247894,257.530334 
	C350.604950,257.044403 352.513885,256.561157 352.224213,253.241943 
	C361.489014,252.719666 370.443390,252.342422 379.398865,252.313629 
	C400.339600,252.246292 421.280884,252.346130 441.909241,252.582245 
	C437.954742,253.943436 434.147705,254.740707 430.700897,256.322784 
	C418.507965,261.919281 412.881287,272.808594 414.791168,286.091827 
	C416.118439,295.323212 421.407837,302.014832 428.532898,307.321838 
	C436.544983,313.289581 444.960236,318.713501 453.041595,324.591919 
	C456.383667,327.022919 459.664612,329.716980 462.353302,332.827393 
	C466.983582,338.183777 467.588348,346.918060 464.299988,352.540863 
	C461.086761,358.035156 453.728882,360.913971 446.359955,359.667816 
	C439.472595,358.503052 434.037018,354.773010 430.946503,348.832275 
	C427.999634,343.167603 426.484039,336.766449 424.198578,330.742462 
	C423.766357,329.603333 422.674866,328.714355 421.887604,327.709961 
	C421.333740,328.770691 420.324371,329.819977 420.297394,330.893921 
	C420.062988,340.221832 419.968567,349.554047 419.947510,358.885284 
	C419.945282,359.871338 420.681793,360.859070 421.075562,361.846008 
	C421.949585,361.078125 423.372498,360.447235 423.604095,359.519043 
	C424.697876,355.136139 427.203094,355.371582 430.359772,357.078094 
	C431.385498,357.632629 432.414093,358.181885 433.441406,358.733490 
	C446.098022,365.528992 459.113373,365.237549 472.028015,359.968658 
	C484.015381,355.078003 489.855408,343.365540 487.491730,330.652588 
	C485.978638,322.514221 481.551239,316.192047 475.151947,311.299133 
	C469.335510,306.851837 463.046112,303.023956 457.218842,298.589722 
	C452.202728,294.772705 446.924347,291.020569 442.851166,286.299896 
	C433.069427,274.963196 438.260895,259.035583 452.188141,256.289795 
	C462.928650,254.172287 473.147217,258.425476 477.706024,268.364960 
	C480.774536,275.055176 481.965881,282.599518 484.098267,289.731476 
	C484.558655,291.271271 485.453217,292.681213 486.147797,294.150940 
	C486.974213,293.940948 487.800629,293.730957 488.627045,293.520966 
	C488.627045,280.894012 488.660004,268.266785 488.552887,255.640732 
	C488.545776,254.799942 487.475281,253.968155 486.899384,253.132187 
	C486.175720,253.866867 485.034973,254.487976 484.798798,255.355362 
	C483.614655,259.704590 481.241455,259.724304 477.628967,258.083557 
	C472.809540,255.894684 467.763153,254.205597 463.285034,252.201782 
	C476.170563,252.067810 488.585297,252.033905 501.000000,252.000000 
z"/>
<path fill="#545454" opacity="1.000000" stroke="none" 
	d="
M1.000000,249.000000 
	C1.000000,166.369415 1.000000,83.738831 1.000000,1.054124 
	C167.557831,1.054124 334.115662,1.054124 501.000000,1.054124 
	C501.000000,83.021721 501.000000,165.043884 500.531433,247.523529 
	C487.557251,247.912567 475.051697,247.844131 462.893097,247.572998 
	C467.329468,245.993408 471.619873,245.030487 475.470184,243.161179 
	C486.548309,237.782776 492.115631,227.265244 490.726013,215.322708 
	C489.611694,205.746246 484.495361,198.517578 477.025757,192.970932 
	C468.472900,186.619965 459.532654,180.792633 450.920929,174.517914 
	C447.857178,172.285599 444.886322,169.709518 442.534576,166.762436 
	C438.004272,161.085373 437.656616,152.525345 441.174713,147.028519 
	C444.598206,141.679459 452.026611,139.001129 459.345154,140.430023 
	C467.376556,141.998138 472.857666,146.997360 476.113647,154.091309 
	C478.372986,159.013855 479.359680,164.511429 481.090973,169.693283 
	C481.424744,170.692261 482.575165,171.418396 483.348846,172.270386 
	C483.875458,171.389023 484.834473,170.521057 484.862244,169.624237 
	C485.161469,159.970901 485.354797,150.313354 485.436859,140.655762 
	C485.444244,139.785095 484.473938,138.906097 483.957672,138.030975 
	C483.259369,138.575394 482.086517,139.013428 481.936829,139.680862 
	C480.571442,145.770615 477.135742,144.427704 473.438080,142.163193 
	C463.837524,136.283630 453.436249,135.317703 442.592834,137.110992 
	C428.056976,139.514908 418.758759,148.395020 417.456879,161.537949 
	C416.383484,172.373688 420.771088,181.206406 429.086212,187.786469 
	C436.515808,193.665710 444.692261,198.595734 452.193420,204.392029 
	C456.489166,207.711411 460.877808,211.397369 463.859833,215.835342 
	C471.590363,227.340225 466.254364,240.849289 453.457184,243.631714 
	C442.600372,245.992279 432.038788,241.695114 427.469360,231.613983 
	C424.362274,224.759094 423.174286,217.043228 420.984100,209.755646 
	C420.592316,208.452011 419.497345,207.359741 418.727020,206.169876 
	C418.187378,207.385483 417.202240,208.592697 417.179138,209.818054 
	C417.006561,218.977310 417.020660,228.140152 416.984192,237.301910 
	C416.971832,240.405502 416.982269,243.509186 416.982269,246.612839 
	C417.375244,246.805756 417.768219,246.998688 418.161194,247.191620 
	C418.980743,246.306824 420.277618,245.542267 420.536102,244.516159 
	C421.575012,240.391373 423.785919,240.188354 427.245880,241.714752 
	C432.246002,243.920593 437.401031,245.775223 441.998077,247.872070 
	C383.450989,248.069077 325.395782,248.176117 267.340576,248.262772 
	C266.021545,248.264740 264.702209,248.035446 263.725830,247.676056 
	C270.796112,244.595413 277.537170,241.784378 284.246765,238.900085 
	C289.665527,236.570648 291.292328,237.286179 293.060608,242.786880 
	C293.442902,243.976059 294.184784,245.049622 294.761017,246.176453 
	C295.270325,246.075745 295.779602,245.975037 296.288910,245.874329 
	C296.456696,244.187317 296.758667,242.501175 296.769531,240.813156 
	C296.821930,232.649078 296.763306,224.484314 296.809174,216.320145 
	C296.841217,210.614182 295.822449,204.391800 303.235077,201.945740 
	C303.332275,201.913666 303.247192,201.329224 303.247192,200.586288 
	C287.915955,200.586288 272.616150,200.586288 257.316345,200.586288 
	C257.246948,201.084488 257.177582,201.582687 257.108185,202.080872 
	C258.655182,202.460587 260.185516,202.939285 261.752014,203.203293 
	C269.610626,204.527786 271.768250,206.746078 272.114624,214.646622 
	C272.362579,220.302216 272.309601,225.973221 272.302338,231.637238 
	C272.290771,240.691330 268.512146,244.555603 259.370697,244.983505 
	C247.478790,245.540161 238.676254,239.502563 234.025208,227.092590 
	C228.585129,212.577271 228.196838,197.438126 229.459442,182.231049 
	C230.277023,172.384140 232.266510,162.753983 237.500000,154.136459 
	C247.105927,138.319214 266.396240,135.589340 280.404602,147.767563 
	C287.514069,153.948181 289.437103,162.220352 291.050262,170.818909 
	C291.343262,172.380524 292.468658,173.785950 293.209747,175.263489 
	C294.037811,175.046921 294.865845,174.830353 295.693909,174.613800 
	C295.693909,163.821152 295.741516,153.028015 295.630127,142.236511 
	C295.617035,140.970428 294.728363,139.713409 294.245575,138.452179 
	C293.403778,139.622696 292.167114,140.678406 291.787720,141.983383 
	C290.031525,148.023865 288.791687,148.715668 283.636536,144.772461 
	C264.223297,129.923157 233.539139,135.822327 218.684845,150.599976 
	C201.687485,167.509613 199.108490,188.251312 203.662811,210.344788 
	C207.718292,230.018356 220.223663,242.094284 239.915085,246.560577 
	C241.522430,246.925156 243.093292,247.450546 244.185974,248.043030 
	C241.362030,248.237640 239.033371,248.330658 236.704437,248.337357 
	C158.136307,248.563309 79.568153,248.781067 1.000000,249.000000 
M75.342232,194.149979 
	C68.421700,189.233307 61.470058,184.359650 54.591980,179.384277 
	C50.281090,176.265945 45.777916,173.321121 41.897350,169.720428 
	C34.968060,163.290878 33.661453,152.585571 38.513695,146.147247 
	C43.328533,139.758545 54.416088,137.569824 62.111351,142.774399 
	C66.716454,145.889008 70.533089,150.730164 73.491219,155.541046 
	C75.841965,159.364136 76.258934,164.350189 77.738014,168.751495 
	C78.171669,170.041931 79.301445,171.098404 80.112167,172.262115 
	C80.661591,171.033691 81.657257,169.816772 81.689323,168.574997 
	C81.930069,159.252457 82.002083,149.925125 82.055435,140.598892 
	C82.060333,139.742004 81.566452,138.882263 80.927567,136.791229 
	C79.631516,138.607437 78.620308,139.443054 78.381546,140.460007 
	C77.362785,144.799210 74.876877,144.711456 71.680229,142.961990 
	C70.658035,142.402557 69.628098,141.857254 68.600746,141.307281 
	C55.956543,134.538681 42.963158,134.809326 30.027174,140.014328 
	C19.457930,144.267059 13.856544,153.470657 14.084558,164.813843 
	C14.283215,174.696579 18.908880,182.377167 26.402075,188.335541 
	C31.604998,192.472733 37.303448,195.980316 42.648563,199.946991 
	C47.584763,203.610199 52.666267,207.171448 57.110168,211.382874 
	C64.327896,218.222977 66.022888,228.689774 61.741966,236.015015 
	C57.915550,242.562515 48.499851,245.583359 39.039120,243.470581 
	C31.406267,241.766006 25.980743,237.142227 23.382057,230.090302 
	C20.877983,223.295120 19.679050,216.024078 17.766684,209.000229 
	C17.480387,207.948700 16.428347,207.105652 15.730539,206.166168 
	C15.158776,206.985672 14.108809,207.792786 14.087173,208.626556 
	C13.776195,220.610992 13.577590,232.598755 13.459902,244.586792 
	C13.452499,245.340759 14.336760,246.103485 14.806188,246.862137 
	C15.549567,246.391190 16.824497,246.034760 16.954428,245.431671 
	C18.313116,239.124954 21.664330,240.639771 25.790033,242.690994 
	C40.535984,250.022461 55.715603,250.129791 70.734146,243.883865 
	C83.378311,238.625381 89.047012,227.580643 87.203278,214.006073 
	C86.106369,205.930038 81.698692,199.881561 75.342232,194.149979 
M384.140472,193.271240 
	C377.514801,176.202850 370.925537,159.120087 364.200073,142.091110 
	C363.609528,140.595825 362.346863,138.646622 361.020294,138.283951 
	C354.733307,136.565216 352.159363,138.076172 349.787476,144.158051 
	C339.203949,171.295624 328.656189,198.447220 318.023010,225.565308 
	C315.346375,232.391571 312.736664,239.334885 305.432495,242.886810 
	C304.888153,243.151535 304.858917,244.475494 304.583038,245.329193 
	C314.901215,245.329193 324.821655,245.329193 334.742096,245.329193 
	C334.834595,244.852997 334.927124,244.376801 335.019653,243.900604 
	C333.644409,243.414856 332.299744,242.800903 330.888885,242.464523 
	C322.734528,240.520401 320.214630,237.607895 321.944031,229.393768 
	C323.508911,221.961060 326.311249,214.766266 328.938995,207.602646 
	C329.365448,206.440048 331.703552,205.344147 333.184937,205.307571 
	C341.840790,205.093735 350.506500,205.116318 359.163971,205.295883 
	C360.546875,205.324585 362.742554,206.226379 363.143494,207.269791 
	C366.662109,216.426682 370.024292,225.653122 373.074738,234.976120 
	C374.422485,239.095108 372.425659,241.632523 368.030579,242.327499 
	C366.268860,242.606049 364.593475,243.430725 362.878815,244.006851 
	C363.037781,244.522049 363.196777,245.037262 363.355743,245.552460 
	C378.476013,245.552460 393.596313,245.552460 409.384827,245.552460 
	C408.645477,244.224182 408.406342,243.054443 407.767273,242.763718 
	C402.724915,240.469849 400.727020,235.946091 398.899017,231.218384 
	C394.096954,218.798874 389.251099,206.396332 384.140472,193.271240 
M114.133301,211.738358 
	C115.627335,209.080902 115.201027,204.982086 120.172470,205.130600 
	C128.825775,205.389114 137.494141,205.116531 146.151474,205.295135 
	C147.536621,205.323700 149.737366,206.217499 150.137634,207.258591 
	C153.657867,216.414688 157.020203,225.640884 160.072937,234.963013 
	C161.419296,239.074371 159.446442,241.627289 155.043686,242.324539 
	C153.278564,242.604080 151.599564,243.427490 149.881363,244.003342 
	C150.037888,244.517578 150.194427,245.031799 150.350952,245.546036 
	C165.470612,245.546036 180.590271,245.546036 196.197830,245.546036 
	C195.754120,244.381317 195.674835,243.262283 195.194077,243.049271 
	C189.008026,240.308060 187.164169,234.509033 184.993332,228.907867 
	C173.925812,200.351822 162.784180,171.824219 151.842392,143.220108 
	C150.400528,139.450775 148.624741,137.858932 144.346420,137.914780 
	C140.336075,137.967133 138.553558,139.223221 137.139648,142.915649 
	C126.545113,170.583313 115.753380,198.175720 104.957527,225.765915 
	C102.279861,232.609070 99.540939,239.473907 92.269524,243.013153 
	C91.788895,243.247101 91.738045,244.364029 91.347084,245.465118 
	C101.760872,245.465118 111.694344,245.465118 121.627815,245.465118 
	C121.740395,245.002945 121.852982,244.540771 121.965561,244.078598 
	C120.378342,243.478760 118.833084,242.705933 117.196648,242.309052 
	C110.109306,240.590286 107.556992,237.756882 108.768570,230.664352 
	C109.823097,224.491196 112.139282,218.533554 114.133301,211.738358 
z"/>
<path fill="#050505" opacity="1.000000" stroke="none" 
	d="
M1.000000,249.399994 
	C79.568153,248.781067 158.136307,248.563309 236.704437,248.337357 
	C239.033371,248.330658 241.362030,248.237640 244.558945,248.057343 
	C251.412369,247.924545 257.397675,247.919281 263.382996,247.914001 
	C264.702209,248.035446 266.021545,248.264740 267.340576,248.262772 
	C325.395782,248.176117 383.450989,248.069077 442.418274,247.896713 
	C449.735657,247.811218 456.140869,247.793457 462.546112,247.775696 
	C475.051697,247.844131 487.557251,247.912567 500.531433,247.990509 
	C501.000000,249.066666 501.000000,250.133347 501.000000,251.600006 
	C488.585297,252.033905 476.170563,252.067810 462.830200,252.170929 
	C455.343658,252.286194 448.782806,252.332245 442.221924,252.378281 
	C421.280884,252.346130 400.339600,252.246292 379.398865,252.313629 
	C370.443390,252.342422 361.489014,252.719666 351.765503,253.240356 
	C336.029114,253.540817 321.061371,253.539459 306.093597,253.538101 
	C305.343567,253.234909 304.591736,252.663528 303.843781,252.668579 
	C291.703705,252.750443 279.564178,252.905426 266.776001,253.296295 
	C265.845917,253.546249 265.564880,253.532852 264.920532,253.344788 
	C264.292358,253.210785 264.028015,253.240509 263.314301,253.197723 
	C253.291428,253.130615 243.717941,253.136002 234.144440,253.141403 
	C218.959183,253.127899 203.773911,253.114395 187.779907,253.323532 
	C185.747375,253.544357 184.523590,253.542542 183.299820,253.540726 
	C181.018417,253.300781 178.737076,252.853073 176.455597,252.852341 
	C146.276321,252.842636 116.097046,252.895798 85.084373,252.955551 
	C83.517609,253.011841 82.784241,253.045807 81.582504,253.028687 
	C75.362869,253.054886 69.611588,253.132202 63.403069,253.154617 
	C53.670658,253.124649 44.395493,253.149597 35.120327,253.174545 
	C24.059267,253.122818 12.998209,253.071091 1.468575,253.009689 
	C1.000000,251.933334 1.000000,250.866653 1.000000,249.399994 
z"/>
<path fill="#88C4A7" opacity="1.000000" stroke="none" 
	d="
M233.892120,253.398132 
	C243.717941,253.136002 253.291428,253.130615 263.439453,253.398453 
	C264.437439,253.617294 264.860901,253.562912 265.284393,253.508545 
	C265.564880,253.532852 265.845917,253.546249 266.336090,253.551971 
	C267.281647,254.123306 267.934845,254.916428 268.767853,255.226456 
	C287.901459,262.348328 297.382019,276.915131 299.618286,296.431671 
	C301.913239,316.460419 298.327789,334.921112 283.047913,349.702911 
	C268.110046,364.153748 237.780258,370.018524 218.461044,355.316895 
	C213.093170,351.232056 212.070358,351.857330 210.143219,358.424408 
	C209.799896,359.594299 208.632660,360.522430 207.845856,361.562164 
	C207.319916,360.333374 206.331070,359.100708 206.341324,357.876404 
	C206.422318,348.216614 206.642731,338.556702 206.968689,328.901825 
	C207.011826,327.624359 207.891479,326.375153 208.383713,325.112854 
	C209.243164,326.269897 210.646164,327.329193 210.874542,328.599670 
	C212.452164,337.375458 214.300613,345.837646 221.540176,352.166382 
	C235.512344,364.380585 254.803711,361.697571 264.449768,345.911743 
	C269.895508,336.999725 271.845612,327.008942 272.624054,316.836670 
	C273.748627,302.142029 273.299957,287.498474 268.142242,273.440735 
	C263.585541,261.021240 255.222626,254.858032 243.655121,255.009201 
	C233.693863,255.139389 229.733337,259.058502 229.719864,268.859924 
	C229.712753,274.024170 229.656693,279.192261 229.826096,284.351929 
	C230.119400,293.285370 232.068878,295.408630 240.750580,296.858704 
	C242.155655,297.093384 243.520294,297.570251 244.903625,297.935181 
	C244.822128,298.433136 244.740616,298.931122 244.659119,299.429077 
	C229.358780,299.429077 214.058456,299.429077 198.752029,299.429077 
	C198.752029,298.641663 198.666794,298.059570 198.764160,298.027222 
	C206.169357,295.567413 205.151825,289.352234 205.177109,283.638519 
	C205.213974,275.308685 205.126495,266.977570 205.253860,258.649475 
	C205.276520,257.167694 206.085556,255.697922 206.531464,254.222595 
	C207.384445,255.395706 208.572006,256.451965 209.029877,257.763062 
	C210.621658,262.320953 212.403488,263.365906 216.891205,261.421722 
	C222.536179,258.976166 228.062347,256.256348 233.892120,253.398132 
z"/>
<path fill="#88C4A7" opacity="1.000000" stroke="none" 
	d="
M441.909241,252.582245 
	C448.782806,252.332245 455.343658,252.286194 462.359375,252.270996 
	C467.763153,254.205597 472.809540,255.894684 477.628967,258.083557 
	C481.241455,259.724304 483.614655,259.704590 484.798798,255.355362 
	C485.034973,254.487976 486.175720,253.866867 486.899384,253.132187 
	C487.475281,253.968155 488.545776,254.799942 488.552887,255.640732 
	C488.660004,268.266785 488.627045,280.894012 488.627045,293.520966 
	C487.800629,293.730957 486.974213,293.940948 486.147797,294.150940 
	C485.453217,292.681213 484.558655,291.271271 484.098267,289.731476 
	C481.965881,282.599518 480.774536,275.055176 477.706024,268.364960 
	C473.147217,258.425476 462.928650,254.172287 452.188141,256.289795 
	C438.260895,259.035583 433.069427,274.963196 442.851166,286.299896 
	C446.924347,291.020569 452.202728,294.772705 457.218842,298.589722 
	C463.046112,303.023956 469.335510,306.851837 475.151947,311.299133 
	C481.551239,316.192047 485.978638,322.514221 487.491730,330.652588 
	C489.855408,343.365540 484.015381,355.078003 472.028015,359.968658 
	C459.113373,365.237549 446.098022,365.528992 433.441406,358.733490 
	C432.414093,358.181885 431.385498,357.632629 430.359772,357.078094 
	C427.203094,355.371582 424.697876,355.136139 423.604095,359.519043 
	C423.372498,360.447235 421.949585,361.078125 421.075562,361.846008 
	C420.681793,360.859070 419.945282,359.871338 419.947510,358.885284 
	C419.968567,349.554047 420.062988,340.221832 420.297394,330.893921 
	C420.324371,329.819977 421.333740,328.770691 421.887604,327.709961 
	C422.674866,328.714355 423.766357,329.603333 424.198578,330.742462 
	C426.484039,336.766449 427.999634,343.167603 430.946503,348.832275 
	C434.037018,354.773010 439.472595,358.503052 446.359955,359.667816 
	C453.728882,360.913971 461.086761,358.035156 464.299988,352.540863 
	C467.588348,346.918060 466.983582,338.183777 462.353302,332.827393 
	C459.664612,329.716980 456.383667,327.022919 453.041595,324.591919 
	C444.960236,318.713501 436.544983,313.289581 428.532898,307.321838 
	C421.407837,302.014832 416.118439,295.323212 414.791168,286.091827 
	C412.881287,272.808594 418.507965,261.919281 430.700897,256.322784 
	C434.147705,254.740707 437.954742,253.943436 441.909241,252.582245 
z"/>
<path fill="#88C4A7" opacity="1.000000" stroke="none" 
	d="
M34.822876,253.376984 
	C44.395493,253.149597 53.670658,253.124649 63.666992,253.384735 
	C67.240219,254.878510 70.162384,255.946381 72.930412,257.323944 
	C79.628387,260.657349 80.102150,260.482788 82.050865,253.079788 
	C82.784241,253.045807 83.517609,253.011841 84.617813,253.013092 
	C84.952583,265.542236 84.970299,278.036835 84.802536,290.528900 
	C84.787666,291.636627 83.564301,292.728119 82.902229,293.827148 
	C82.255951,292.675507 81.367531,291.595337 81.003181,290.360504 
	C78.848328,283.057281 77.639603,275.346710 74.545349,268.479279 
	C70.046562,258.494629 59.863842,254.209137 49.078304,256.271912 
	C35.944969,258.783722 30.330181,272.417328 38.128628,284.165771 
	C40.995480,288.484711 45.245213,292.083282 49.414017,295.297241 
	C56.925980,301.088623 64.990089,306.160187 72.560722,311.880280 
	C78.277054,316.199310 82.299515,321.949677 83.907585,329.063995 
	C87.747879,346.054047 77.674789,359.871552 59.377617,362.912140 
	C48.510979,364.717926 38.124901,363.740021 28.533571,357.830597 
	C24.783472,355.520081 21.393297,354.364166 20.043951,360.381775 
	C19.898638,361.029816 18.680937,361.437408 17.960688,361.956543 
	C17.456032,361.228119 16.505592,360.494568 16.513937,359.772064 
	C16.629370,349.777557 16.844336,339.783569 17.159170,329.793335 
	C17.181641,329.080322 18.172358,328.397797 18.712860,327.701111 
	C19.467831,328.580475 20.577759,329.341156 20.918055,330.359131 
	C22.651478,335.544647 23.644680,341.046875 25.918774,345.965851 
	C29.194820,353.052094 34.683048,358.047363 42.736771,359.575073 
	C50.100140,360.971832 57.656982,358.370117 60.817577,352.842743 
	C64.580704,346.261658 63.893787,339.588470 59.634136,333.548584 
	C57.663345,330.754150 54.933346,328.339447 52.143589,326.307098 
	C43.257690,319.833771 34.051353,313.797302 25.218842,307.254547 
	C17.292124,301.382751 11.876622,293.763672 11.176741,283.516052 
	C10.181991,268.950958 17.824001,259.183380 34.822876,253.376984 
z"/>
<path fill="#88C3A7" opacity="1.000000" stroke="none" 
	d="
M182.920761,253.754669 
	C184.523590,253.542542 185.747375,253.544357 187.336304,253.543488 
	C190.899185,253.883713 194.096878,254.226639 197.742828,254.617630 
	C197.276459,255.743607 197.177567,256.831848 196.672089,257.075043 
	C189.363556,260.591431 186.696243,267.506256 184.019333,274.338135 
	C173.332489,301.612793 162.731583,328.921173 152.093338,356.214874 
	C149.984406,361.625610 145.938202,363.760529 140.612991,361.656372 
	C139.157181,361.081177 138.076889,358.818909 137.406250,357.103363 
	C126.559105,329.355103 115.811943,301.567810 105.027161,273.795135 
	C102.455048,267.171509 100.668320,260.005768 93.366348,256.549347 
	C93.108276,256.427185 93.165817,255.638290 92.972641,254.606842 
	C108.257690,254.606842 123.384575,254.606842 138.511459,254.606842 
	C138.698929,254.990250 138.886383,255.373642 139.073853,255.757050 
	C137.632080,256.367828 136.241562,257.194092 134.739487,257.551361 
	C128.880676,258.944916 127.372696,260.981842 129.270966,266.747406 
	C132.080338,275.280243 135.230591,283.708771 138.545853,292.058563 
	C139.041855,293.307770 141.205994,294.617828 142.632141,294.656464 
	C151.452225,294.895660 160.283890,294.870880 169.106400,294.683380 
	C170.458313,294.654663 172.605667,293.623871 172.987274,292.556671 
	C175.612122,285.216125 178.504974,277.873749 180.061844,270.275879 
	C181.692062,262.319977 179.121994,259.467438 171.222733,257.599792 
	C169.789841,257.261047 168.418945,256.660217 167.019424,256.180359 
	C167.090744,255.443115 167.162048,254.705872 167.233368,253.968613 
	C172.336151,253.968613 177.438919,253.968613 182.920761,253.754669 
M160.654846,325.135223 
	C164.021866,316.328247 167.388885,307.521301 170.872452,298.409485 
	C160.559860,298.409485 150.941650,298.409485 140.666916,298.409485 
	C145.580826,311.806091 150.250427,324.536652 155.427292,338.650177 
	C157.410538,333.482422 158.876480,329.662628 160.654846,325.135223 
z"/>
<path fill="#88C3A7" opacity="1.000000" stroke="none" 
	d="
M306.043884,253.938080 
	C321.061371,253.539459 336.029114,253.540817 351.455566,253.543732 
	C352.513885,256.561157 350.604950,257.044403 348.247894,257.530334 
	C341.685211,258.883270 340.318573,260.981049 342.406891,267.220703 
	C345.151764,275.421936 348.139435,283.550934 351.360565,291.575378 
	C351.925842,292.983582 354.122467,294.585236 355.613647,294.634064 
	C364.427185,294.922852 373.256775,294.870483 382.075775,294.685547 
	C383.433258,294.657074 385.593384,293.647156 385.973511,292.586334 
	C388.602203,285.250397 391.496979,277.912018 393.057251,270.317810 
	C394.697388,262.334839 392.130707,259.484436 384.274780,257.595581 
	C382.800598,257.241150 381.436981,256.426788 380.022339,255.824661 
	C380.151245,255.388031 380.280151,254.951385 380.409058,254.514740 
	C390.341339,254.514740 400.273621,254.514740 410.714325,254.514740 
	C410.272552,255.687592 410.203888,256.792786 409.714905,257.029449 
	C402.430237,260.554901 399.716980,267.435516 397.041443,274.270782 
	C386.246826,301.847931 375.461548,329.429321 364.872437,357.085571 
	C363.457214,360.781891 361.662659,362.042786 357.659149,362.091064 
	C353.399628,362.142395 351.589386,360.577362 350.141937,356.793457 
	C339.026337,327.735291 327.713043,298.752747 316.466217,269.744751 
	C314.528839,264.747772 312.656036,259.760620 307.259888,257.235077 
	C306.543060,256.899567 306.401947,255.333969 306.043884,253.938080 
M366.300934,332.969666 
	C366.911194,334.392242 367.521454,335.814850 368.582550,338.288330 
	C373.938599,324.344604 378.859680,311.533203 383.982422,298.196747 
	C373.618225,298.196747 364.054962,298.196747 353.633728,298.196747 
	C357.896271,309.890839 361.974792,321.080048 366.300934,332.969666 
z"/>
<path fill="#EA6A31" opacity="1.000000" stroke="none" 
	d="
M263.725830,247.676056 
	C257.397675,247.919281 251.412369,247.924545 245.054092,247.915512 
	C243.093292,247.450546 241.522430,246.925156 239.915085,246.560577 
	C220.223663,242.094284 207.718292,230.018356 203.662811,210.344788 
	C199.108490,188.251312 201.687485,167.509613 218.684845,150.599976 
	C233.539139,135.822327 264.223297,129.923157 283.636536,144.772461 
	C288.791687,148.715668 290.031525,148.023865 291.787720,141.983383 
	C292.167114,140.678406 293.403778,139.622696 294.245575,138.452179 
	C294.728363,139.713409 295.617035,140.970428 295.630127,142.236511 
	C295.741516,153.028015 295.693909,163.821152 295.693909,174.613800 
	C294.865845,174.830353 294.037811,175.046921 293.209747,175.263489 
	C292.468658,173.785950 291.343262,172.380524 291.050262,170.818909 
	C289.437103,162.220352 287.514069,153.948181 280.404602,147.767563 
	C266.396240,135.589340 247.105927,138.319214 237.500000,154.136459 
	C232.266510,162.753983 230.277023,172.384140 229.459442,182.231049 
	C228.196838,197.438126 228.585129,212.577271 234.025208,227.092590 
	C238.676254,239.502563 247.478790,245.540161 259.370697,244.983505 
	C268.512146,244.555603 272.290771,240.691330 272.302338,231.637238 
	C272.309601,225.973221 272.362579,220.302216 272.114624,214.646622 
	C271.768250,206.746078 269.610626,204.527786 261.752014,203.203293 
	C260.185516,202.939285 258.655182,202.460587 257.108185,202.080872 
	C257.177582,201.582687 257.246948,201.084488 257.316345,200.586288 
	C272.616150,200.586288 287.915955,200.586288 303.247192,200.586288 
	C303.247192,201.329224 303.332275,201.913666 303.235077,201.945740 
	C295.822449,204.391800 296.841217,210.614182 296.809174,216.320145 
	C296.763306,224.484314 296.821930,232.649078 296.769531,240.813156 
	C296.758667,242.501175 296.456696,244.187317 296.288910,245.874329 
	C295.779602,245.975037 295.270325,246.075745 294.761017,246.176453 
	C294.184784,245.049622 293.442902,243.976059 293.060608,242.786880 
	C291.292328,237.286179 289.665527,236.570648 284.246765,238.900085 
	C277.537170,241.784378 270.796112,244.595413 263.725830,247.676056 
z"/>
<path fill="#EA6A31" opacity="1.000000" stroke="none" 
	d="
M75.608421,194.382538 
	C81.698692,199.881561 86.106369,205.930038 87.203278,214.006073 
	C89.047012,227.580643 83.378311,238.625381 70.734146,243.883865 
	C55.715603,250.129791 40.535984,250.022461 25.790033,242.690994 
	C21.664330,240.639771 18.313116,239.124954 16.954428,245.431671 
	C16.824497,246.034760 15.549567,246.391190 14.806189,246.862137 
	C14.336760,246.103485 13.452499,245.340759 13.459902,244.586792 
	C13.577590,232.598755 13.776195,220.610992 14.087173,208.626556 
	C14.108809,207.792786 15.158776,206.985672 15.730539,206.166168 
	C16.428347,207.105652 17.480387,207.948700 17.766684,209.000229 
	C19.679050,216.024078 20.877983,223.295120 23.382057,230.090302 
	C25.980743,237.142227 31.406267,241.766006 39.039120,243.470581 
	C48.499851,245.583359 57.915550,242.562515 61.741966,236.015015 
	C66.022888,228.689774 64.327896,218.222977 57.110168,211.382874 
	C52.666267,207.171448 47.584763,203.610199 42.648563,199.946991 
	C37.303448,195.980316 31.604998,192.472733 26.402075,188.335541 
	C18.908880,182.377167 14.283215,174.696579 14.084558,164.813843 
	C13.856544,153.470657 19.457930,144.267059 30.027174,140.014328 
	C42.963158,134.809326 55.956543,134.538681 68.600746,141.307281 
	C69.628098,141.857254 70.658035,142.402557 71.680229,142.961990 
	C74.876877,144.711456 77.362785,144.799210 78.381546,140.460007 
	C78.620308,139.443054 79.631516,138.607437 80.927567,136.791229 
	C81.566452,138.882263 82.060333,139.742004 82.055435,140.598892 
	C82.002083,149.925125 81.930069,159.252457 81.689323,168.574997 
	C81.657257,169.816772 80.661591,171.033691 80.112167,172.262115 
	C79.301445,171.098404 78.171669,170.041931 77.738014,168.751495 
	C76.258934,164.350189 75.841965,159.364136 73.491219,155.541046 
	C70.533089,150.730164 66.716454,145.889008 62.111351,142.774399 
	C54.416088,137.569824 43.328533,139.758545 38.513695,146.147247 
	C33.661453,152.585571 34.968060,163.290878 41.897350,169.720428 
	C45.777916,173.321121 50.281090,176.265945 54.591980,179.384277 
	C61.470058,184.359650 68.421700,189.233307 75.608421,194.382538 
z"/>
<path fill="#EA6A31" opacity="1.000000" stroke="none" 
	d="
M462.893097,247.572998 
	C456.140869,247.793457 449.735657,247.811218 442.910217,247.804321 
	C437.401031,245.775223 432.246002,243.920593 427.245880,241.714752 
	C423.785919,240.188354 421.575012,240.391373 420.536102,244.516159 
	C420.277618,245.542267 418.980743,246.306824 418.161194,247.191620 
	C417.768219,246.998688 417.375244,246.805756 416.982269,246.612839 
	C416.982269,243.509186 416.971832,240.405502 416.984192,237.301910 
	C417.020660,228.140152 417.006561,218.977310 417.179138,209.818054 
	C417.202240,208.592697 418.187378,207.385483 418.727020,206.169876 
	C419.497345,207.359741 420.592316,208.452011 420.984100,209.755646 
	C423.174286,217.043228 424.362274,224.759094 427.469360,231.613983 
	C432.038788,241.695114 442.600372,245.992279 453.457184,243.631714 
	C466.254364,240.849289 471.590363,227.340225 463.859833,215.835342 
	C460.877808,211.397369 456.489166,207.711411 452.193420,204.392029 
	C444.692261,198.595734 436.515808,193.665710 429.086212,187.786469 
	C420.771088,181.206406 416.383484,172.373688 417.456879,161.537949 
	C418.758759,148.395020 428.056976,139.514908 442.592834,137.110992 
	C453.436249,135.317703 463.837524,136.283630 473.438080,142.163193 
	C477.135742,144.427704 480.571442,145.770615 481.936829,139.680862 
	C482.086517,139.013428 483.259369,138.575394 483.957672,138.030975 
	C484.473938,138.906097 485.444244,139.785095 485.436859,140.655762 
	C485.354797,150.313354 485.161469,159.970901 484.862244,169.624237 
	C484.834473,170.521057 483.875458,171.389023 483.348846,172.270386 
	C482.575165,171.418396 481.424744,170.692261 481.090973,169.693283 
	C479.359680,164.511429 478.372986,159.013855 476.113647,154.091309 
	C472.857666,146.997360 467.376556,141.998138 459.345154,140.430023 
	C452.026611,139.001129 444.598206,141.679459 441.174713,147.028519 
	C437.656616,152.525345 438.004272,161.085373 442.534576,166.762436 
	C444.886322,169.709518 447.857178,172.285599 450.920929,174.517914 
	C459.532654,180.792633 468.472900,186.619965 477.025757,192.970932 
	C484.495361,198.517578 489.611694,205.746246 490.726013,215.322708 
	C492.115631,227.265244 486.548309,237.782776 475.470184,243.161179 
	C471.619873,245.030487 467.329468,245.993408 462.893097,247.572998 
z"/>
<path fill="#E96931" opacity="1.000000" stroke="none" 
	d="
M384.281586,193.629135 
	C389.251099,206.396332 394.096954,218.798874 398.899017,231.218384 
	C400.727020,235.946091 402.724915,240.469849 407.767273,242.763718 
	C408.406342,243.054443 408.645477,244.224182 409.384827,245.552460 
	C393.596313,245.552460 378.476013,245.552460 363.355743,245.552460 
	C363.196777,245.037262 363.037781,244.522049 362.878815,244.006851 
	C364.593475,243.430725 366.268860,242.606049 368.030579,242.327499 
	C372.425659,241.632523 374.422485,239.095108 373.074738,234.976120 
	C370.024292,225.653122 366.662109,216.426682 363.143494,207.269791 
	C362.742554,206.226379 360.546875,205.324585 359.163971,205.295883 
	C350.506500,205.116318 341.840790,205.093735 333.184937,205.307571 
	C331.703552,205.344147 329.365448,206.440048 328.938995,207.602646 
	C326.311249,214.766266 323.508911,221.961060 321.944031,229.393768 
	C320.214630,237.607895 322.734528,240.520401 330.888885,242.464523 
	C332.299744,242.800903 333.644409,243.414856 335.019653,243.900604 
	C334.927124,244.376801 334.834595,244.852997 334.742096,245.329193 
	C324.821655,245.329193 314.901215,245.329193 304.583038,245.329193 
	C304.858917,244.475494 304.888153,243.151535 305.432495,242.886810 
	C312.736664,239.334885 315.346375,232.391571 318.023010,225.565308 
	C328.656189,198.447220 339.203949,171.295624 349.787476,144.158051 
	C352.159363,138.076172 354.733307,136.565216 361.020294,138.283951 
	C362.346863,138.646622 363.609528,140.595825 364.200073,142.091110 
	C370.925537,159.120087 377.514801,176.202850 384.281586,193.629135 
M334.099762,193.598785 
	C333.158997,196.210022 332.218201,198.821259 331.199341,201.649261 
	C341.377594,201.649261 351.022491,201.649261 361.370392,201.649261 
	C356.443726,188.224487 351.751556,175.438751 346.579651,161.345734 
	C342.147491,172.800385 338.263000,182.839569 334.099762,193.598785 
z"/>
<path fill="#E96931" opacity="1.000000" stroke="none" 
	d="
M114.015625,212.109512 
	C112.139282,218.533554 109.823097,224.491196 108.768570,230.664352 
	C107.556992,237.756882 110.109306,240.590286 117.196648,242.309052 
	C118.833084,242.705933 120.378342,243.478760 121.965561,244.078598 
	C121.852982,244.540771 121.740395,245.002945 121.627815,245.465118 
	C111.694344,245.465118 101.760872,245.465118 91.347084,245.465118 
	C91.738045,244.364029 91.788895,243.247101 92.269524,243.013153 
	C99.540939,239.473907 102.279861,232.609070 104.957527,225.765915 
	C115.753380,198.175720 126.545113,170.583313 137.139648,142.915649 
	C138.553558,139.223221 140.336075,137.967133 144.346420,137.914780 
	C148.624741,137.858932 150.400528,139.450775 151.842392,143.220108 
	C162.784180,171.824219 173.925812,200.351822 184.993332,228.907867 
	C187.164169,234.509033 189.008026,240.308060 195.194077,243.049271 
	C195.674835,243.262283 195.754120,244.381317 196.197830,245.546036 
	C180.590271,245.546036 165.470612,245.546036 150.350952,245.546036 
	C150.194427,245.031799 150.037888,244.517578 149.881363,244.003342 
	C151.599564,243.427490 153.278564,242.604080 155.043686,242.324539 
	C159.446442,241.627289 161.419296,239.074371 160.072937,234.963013 
	C157.020203,225.640884 153.657867,216.414688 150.137634,207.258591 
	C149.737366,206.217499 147.536621,205.323700 146.151474,205.295135 
	C137.494141,205.116531 128.825775,205.389114 120.172470,205.130600 
	C115.201027,204.982086 115.627335,209.080902 114.015625,212.109512 
M147.723801,199.975510 
	C143.177826,187.542892 138.631851,175.110275 133.582077,161.299835 
	C128.097549,175.539856 123.133530,188.428421 117.915222,201.977219 
	C127.949631,201.977219 137.197403,201.993988 146.444565,201.926956 
	C146.899933,201.923645 147.349991,201.188812 147.723801,199.975510 
z"/>
<path fill="#575A58" opacity="1.000000" stroke="none" 
	d="
M81.582504,253.028687 
	C80.102150,260.482788 79.628387,260.657349 72.930412,257.323944 
	C70.162384,255.946381 67.240219,254.878510 64.124237,253.439651 
	C69.611588,253.132202 75.362869,253.054886 81.582504,253.028687 
z"/>
<path fill="#545454" opacity="1.000000" stroke="none" 
	d="
M264.920532,253.344788 
	C264.860901,253.562912 264.437439,253.617294 263.888794,253.470978 
	C264.028015,253.240509 264.292358,253.210785 264.920532,253.344788 
z"/>
<path fill="#555655" opacity="1.000000" stroke="none" 
	d="
M160.498627,325.489014 
	C158.876480,329.662628 157.410538,333.482422 155.427292,338.650177 
	C150.250427,324.536652 145.580826,311.806091 140.666916,298.409485 
	C150.941650,298.409485 160.559860,298.409485 170.872452,298.409485 
	C167.388885,307.521301 164.021866,316.328247 160.498627,325.489014 
z"/>
<path fill="#555655" opacity="1.000000" stroke="none" 
	d="
M366.177124,332.619446 
	C361.974792,321.080048 357.896271,309.890839 353.633728,298.196747 
	C364.054962,298.196747 373.618225,298.196747 383.982422,298.196747 
	C378.859680,311.533203 373.938599,324.344604 368.582550,338.288330 
	C367.521454,335.814850 366.911194,334.392242 366.177124,332.619446 
z"/>
<path fill="#565453" opacity="1.000000" stroke="none" 
	d="
M334.239136,193.238770 
	C338.263000,182.839569 342.147491,172.800385 346.579651,161.345734 
	C351.751556,175.438751 356.443726,188.224487 361.370392,201.649261 
	C351.022491,201.649261 341.377594,201.649261 331.199341,201.649261 
	C332.218201,198.821259 333.158997,196.210022 334.239136,193.238770 
z"/>
<path fill="#565453" opacity="1.000000" stroke="none" 
	d="
M147.763153,200.385071 
	C147.349991,201.188812 146.899933,201.923645 146.444565,201.926956 
	C137.197403,201.993988 127.949631,201.977219 117.915222,201.977219 
	C123.133530,188.428421 128.097549,175.539856 133.582077,161.299835 
	C138.631851,175.110275 143.177826,187.542892 147.763153,200.385071 
z"/>
</svg>